<svg width="18" height="18" viewBox="0 0 22 22" fill="none" xmlns="http://www.w3.org/2000/svg">
<path d="M7.4652 0.493596C7.50709 0.351056 7.59404 0.225925 7.71301 0.136942C7.83199 0.0479588 7.97659 -8.68762e-05 8.12516 1.17929e-07H13.6248C13.7337 8.27614e-05 13.841 0.0260217 13.9379 0.0756815C14.0348 0.125341 14.1185 0.197302 14.1821 0.285639C14.2457 0.373977 14.2875 0.476165 14.3039 0.583791C14.3203 0.691417 14.3109 0.801404 14.2765 0.904696L11.8292 8.24951H17.0621C17.1909 8.24942 17.317 8.28548 17.4263 8.35359C17.5355 8.4217 17.6235 8.51911 17.6801 8.63474C17.7367 8.75037 17.7597 8.87957 17.7464 9.00763C17.7332 9.13569 17.6843 9.25745 17.6052 9.35907L7.98079 21.7333C7.8822 21.8607 7.742 21.9494 7.58468 21.984C7.42735 22.0185 7.26289 21.9968 7.11998 21.9225C6.97707 21.8481 6.8648 21.726 6.80275 21.5773C6.7407 21.4287 6.73282 21.263 6.78049 21.1091L9.25671 13.0617H4.68786C4.58098 13.0618 4.47556 13.0369 4.37997 12.9891C4.28438 12.9413 4.20125 12.8719 4.13718 12.7863C4.07312 12.7008 4.02989 12.6015 4.01092 12.4963C3.99195 12.3911 3.99776 12.2829 4.0279 12.1804L7.4652 0.493596Z" fill="white"/>
</svg>