<svg width="51" height="11" viewBox="0 0 51 11" fill="none" xmlns="http://www.w3.org/2000/svg">
<path d="M3.852 4.712C4.092 4.712 4.292 4.612 4.452 4.412C4.62 4.212 4.756 3.968 4.86 3.68C4.972 3.392 5.052 3.092 5.1 2.78C5.148 2.468 5.172 2.196 5.172 1.964C5.172 1.748 5.136 1.568 5.064 1.424C4.992 1.272 4.836 1.196 4.596 1.196H4.056L3.3 4.712H3.852ZM3.132 5.48L2.592 8H0L1.62 0.379997H4.392C4.848 0.379997 5.264 0.403997 5.64 0.451998C6.016 0.499998 6.34 0.595998 6.612 0.739998C6.884 0.883998 7.096 1.092 7.248 1.364C7.4 1.628 7.476 1.984 7.476 2.432C7.476 2.848 7.408 3.244 7.272 3.62C7.144 3.988 6.932 4.312 6.636 4.592C6.348 4.864 5.972 5.08 5.508 5.24C5.044 5.4 4.48 5.48 3.816 5.48H3.132Z" fill="url(#paint0_radial_1_3)"/>
<path d="M10.9753 2.708C11.9273 2.708 12.6193 2.876 13.0513 3.212C13.5073 3.564 13.7353 4.148 13.7353 4.964C13.7353 5.468 13.6513 5.924 13.4833 6.332C13.3153 6.732 13.0793 7.064 12.7753 7.328C12.1673 7.84 11.2873 8.096 10.1353 8.096C9.15131 8.096 8.44731 7.908 8.02331 7.532C7.56731 7.14 7.33931 6.552 7.33931 5.768C7.33931 5.248 7.44331 4.776 7.65131 4.352C7.86731 3.928 8.17531 3.576 8.57531 3.296C9.15931 2.904 9.95931 2.708 10.9753 2.708ZM10.1593 7.28C10.3593 7.28 10.5313 7.168 10.6753 6.944C10.8273 6.72 10.9473 6.448 11.0353 6.128C11.1233 5.8 11.1873 5.464 11.2273 5.12C11.2753 4.768 11.2993 4.464 11.2993 4.208C11.2993 3.984 11.2753 3.816 11.2273 3.704C11.1873 3.584 11.0953 3.524 10.9513 3.524C10.7353 3.524 10.5473 3.64 10.3873 3.872C10.2353 4.104 10.1113 4.38 10.0153 4.7C9.91931 5.02 9.84731 5.348 9.79931 5.684C9.75931 6.02 9.73931 6.292 9.73931 6.5C9.73931 7.02 9.87931 7.28 10.1593 7.28Z" fill="url(#paint1_radial_1_3)"/>
<path d="M14.2713 2.84H16.8153L17.2353 6.368L18.6873 2.84H20.9793L21.3873 6.368L22.8393 2.84H24.1113L21.7233 8H19.2153L18.7713 5.384L17.5593 8H15.0513L14.2713 2.84Z" fill="url(#paint2_radial_1_3)"/>
<path d="M26.3933 5.588C26.3613 5.764 26.3373 5.932 26.3213 6.092C26.3133 6.252 26.3093 6.396 26.3093 6.524C26.3093 6.596 26.3133 6.676 26.3213 6.764C26.3293 6.852 26.3453 6.936 26.3693 7.016C26.4013 7.088 26.4413 7.152 26.4893 7.208C26.5453 7.256 26.6213 7.28 26.7173 7.28C26.7893 7.28 26.8693 7.256 26.9573 7.208C27.0533 7.16 27.1453 7.092 27.2333 7.004C27.3293 6.916 27.4173 6.808 27.4973 6.68C27.5853 6.552 27.6533 6.408 27.7013 6.248H29.6693L29.3573 7.532C29.1973 7.636 29.0133 7.724 28.8053 7.796C28.5973 7.868 28.3773 7.928 28.1453 7.976C27.9133 8.016 27.6773 8.044 27.4373 8.06C27.1973 8.084 26.9693 8.096 26.7533 8.096C26.3533 8.096 25.9813 8.06 25.6373 7.988C25.2933 7.916 24.9933 7.792 24.7373 7.616C24.4813 7.44 24.2773 7.208 24.1253 6.92C23.9813 6.624 23.9093 6.26 23.9093 5.828C23.9093 5.436 23.9693 5.052 24.0893 4.676C24.2173 4.3 24.4253 3.968 24.7133 3.68C25.0093 3.384 25.4013 3.148 25.8893 2.972C26.3853 2.796 27.0013 2.708 27.7373 2.708C28.5373 2.708 29.1373 2.832 29.5373 3.08C29.9453 3.328 30.1493 3.716 30.1493 4.244C30.1493 4.46 30.1173 4.696 30.0533 4.952C29.9893 5.2 29.8933 5.412 29.7653 5.588H26.3933ZM27.9893 4.16C27.9893 3.912 27.9493 3.744 27.8693 3.656C27.7893 3.568 27.6933 3.524 27.5813 3.524C27.4533 3.524 27.3333 3.568 27.2213 3.656C27.1173 3.736 27.0213 3.848 26.9333 3.992C26.8453 4.128 26.7653 4.288 26.6933 4.472C26.6213 4.648 26.5613 4.836 26.5133 5.036H27.8813C27.8973 4.94 27.9133 4.84 27.9293 4.736C27.9453 4.648 27.9573 4.552 27.9653 4.448C27.9813 4.344 27.9893 4.248 27.9893 4.16Z" fill="url(#paint3_radial_1_3)"/>
<path d="M31.3118 2.84H33.2678L33.4478 3.74H33.5318C33.7158 3.452 33.9518 3.208 34.2398 3.008C34.5278 2.808 34.9078 2.708 35.3798 2.708C35.4118 2.708 35.4598 2.712 35.5238 2.72C35.5958 2.72 35.6718 2.732 35.7518 2.756C35.8398 2.772 35.9278 2.8 36.0158 2.84C36.1118 2.872 36.2038 2.92 36.2918 2.984L35.7638 5.456H34.4558C34.4398 4.96 34.3958 4.616 34.3238 4.424C34.2518 4.224 34.1358 4.124 33.9758 4.124C33.8958 4.124 33.8078 4.144 33.7118 4.184C33.6238 4.216 33.5318 4.292 33.4358 4.412L32.6678 8H30.2198L31.3118 2.84Z" fill="url(#paint4_radial_1_3)"/>
<path d="M39.3446 5.276C39.3046 5.452 39.2726 5.604 39.2486 5.732C39.2246 5.86 39.2126 5.98 39.2126 6.092C39.2126 6.372 39.3086 6.596 39.5006 6.764C39.7006 6.932 39.9926 7.016 40.3766 7.016C40.6566 7.016 40.8846 6.968 41.0606 6.872C41.2446 6.776 41.3926 6.648 41.5046 6.488C41.6246 6.328 41.7166 6.144 41.7806 5.936C41.8526 5.728 41.9126 5.508 41.9606 5.276L42.9806 0.379997H44.0726L43.0286 5.3C42.9486 5.684 42.8326 6.044 42.6806 6.38C42.5286 6.716 42.3086 7.012 42.0206 7.268C41.7406 7.524 41.3766 7.728 40.9286 7.88C40.4806 8.024 39.9246 8.096 39.2606 8.096C38.3406 8.096 37.6606 7.948 37.2206 7.652C36.7806 7.348 36.5606 6.884 36.5606 6.26C36.5606 5.98 36.5966 5.624 36.6686 5.192C36.7406 4.76 36.8326 4.292 36.9446 3.788L37.6766 0.379997H40.4006L39.3446 5.276Z" fill="url(#paint5_radial_1_3)"/>
<path d="M45.5366 10.016H43.0886L44.6006 2.84H46.5566L46.7726 3.608H46.8446C47.1326 3.304 47.4526 3.088 47.8046 2.96C48.1646 2.824 48.5166 2.756 48.8606 2.756C49.1406 2.756 49.3726 2.8 49.5566 2.888C49.7486 2.968 49.9006 3.08 50.0126 3.224C50.1246 3.368 50.2046 3.54 50.2526 3.74C50.3006 3.94 50.3246 4.152 50.3246 4.376C50.3246 4.488 50.3166 4.656 50.3006 4.88C50.2846 5.104 50.2486 5.356 50.1926 5.636C50.1366 5.908 50.0566 6.192 49.9526 6.488C49.8486 6.776 49.7086 7.04 49.5326 7.28C49.3646 7.52 49.1486 7.716 48.8846 7.868C48.6286 8.02 48.3206 8.096 47.9606 8.096C47.7606 8.096 47.5646 8.072 47.3726 8.024C47.1886 7.976 47.0206 7.912 46.8686 7.832C46.7166 7.752 46.5806 7.66 46.4606 7.556C46.3486 7.444 46.2646 7.332 46.2086 7.22H46.1366L45.5366 10.016ZM46.8086 6.932C47.0006 6.932 47.1606 6.832 47.2886 6.632C47.4166 6.424 47.5206 6.184 47.6006 5.912C47.6806 5.632 47.7366 5.356 47.7686 5.084C47.8086 4.804 47.8286 4.596 47.8286 4.46C47.8286 4.3 47.8006 4.168 47.7446 4.064C47.6966 3.96 47.6046 3.908 47.4686 3.908C47.3166 3.908 47.1726 3.964 47.0366 4.076C46.9006 4.18 46.8006 4.272 46.7366 4.352L46.2686 6.548C46.3326 6.636 46.4086 6.724 46.4966 6.812C46.5846 6.892 46.6886 6.932 46.8086 6.932Z" fill="url(#paint6_radial_1_3)"/>
<defs>
<radialGradient id="paint0_radial_1_3" cx="0" cy="0" r="1" gradientUnits="userSpaceOnUse" gradientTransform="translate(-3.08987e-06 8) rotate(-8.0429) scale(46.457 157.954)">
<stop stop-color="#0E43FF"/>
<stop offset="1" stop-color="#D21DFF"/>
</radialGradient>
<radialGradient id="paint1_radial_1_3" cx="0" cy="0" r="1" gradientUnits="userSpaceOnUse" gradientTransform="translate(-3.08987e-06 8) rotate(-8.0429) scale(46.457 157.954)">
<stop stop-color="#0E43FF"/>
<stop offset="1" stop-color="#D21DFF"/>
</radialGradient>
<radialGradient id="paint2_radial_1_3" cx="0" cy="0" r="1" gradientUnits="userSpaceOnUse" gradientTransform="translate(-3.08987e-06 8) rotate(-8.0429) scale(46.457 157.954)">
<stop stop-color="#0E43FF"/>
<stop offset="1" stop-color="#D21DFF"/>
</radialGradient>
<radialGradient id="paint3_radial_1_3" cx="0" cy="0" r="1" gradientUnits="userSpaceOnUse" gradientTransform="translate(-3.08987e-06 8) rotate(-8.0429) scale(46.457 157.954)">
<stop stop-color="#0E43FF"/>
<stop offset="1" stop-color="#D21DFF"/>
</radialGradient>
<radialGradient id="paint4_radial_1_3" cx="0" cy="0" r="1" gradientUnits="userSpaceOnUse" gradientTransform="translate(-3.08987e-06 8) rotate(-8.0429) scale(46.457 157.954)">
<stop stop-color="#0E43FF"/>
<stop offset="1" stop-color="#D21DFF"/>
</radialGradient>
<radialGradient id="paint5_radial_1_3" cx="0" cy="0" r="1" gradientUnits="userSpaceOnUse" gradientTransform="translate(-3.08987e-06 8) rotate(-8.0429) scale(46.457 157.954)">
<stop stop-color="#0E43FF"/>
<stop offset="1" stop-color="#D21DFF"/>
</radialGradient>
<radialGradient id="paint6_radial_1_3" cx="0" cy="0" r="1" gradientUnits="userSpaceOnUse" gradientTransform="translate(-3.08987e-06 8) rotate(-8.0429) scale(46.457 157.954)">
<stop stop-color="#0E43FF"/>
<stop offset="1" stop-color="#D21DFF"/>
</radialGradient>
</defs>
</svg>
